<svg width="16" height="16" viewBox="0 0 16 16" fill="none" xmlns="http://www.w3.org/2000/svg">
<g clip-path="url(#clip0_4232_371)">
<path d="M11.3333 2.66659H14C14.1768 2.66659 14.3464 2.73682 14.4714 2.86185C14.5964 2.98687 14.6667 3.15644 14.6667 3.33325V13.9999C14.6667 14.1767 14.5964 14.3463 14.4714 14.4713C14.3464 14.5963 14.1768 14.6666 14 14.6666H2.00001C1.8232 14.6666 1.65363 14.5963 1.52861 14.4713C1.40358 14.3463 1.33334 14.1767 1.33334 13.9999V3.33325C1.33334 3.15644 1.40358 2.98687 1.52861 2.86185C1.65363 2.73682 1.8232 2.66659 2.00001 2.66659H4.66668V1.33325H6.00001V2.66659H10V1.33325H11.3333V2.66659ZM13.3333 7.99992H2.66668V13.3333H13.3333V7.99992ZM10 3.99992H6.00001V5.33325H4.66668V3.99992H2.66668V6.66659H13.3333V3.99992H11.3333V5.33325H10V3.99992ZM4.00001 9.33325H5.33334V10.6666H4.00001V9.33325ZM7.33334 9.33325H8.66668V10.6666H7.33334V9.33325ZM10.6667 9.33325H12V10.6666H10.6667V9.33325Z" fill="#878787"/>
</g>
<defs>
<clipPath id="clip0_4232_371">
<rect width="16" height="16" fill="white"/>
</clipPath>
</defs>
</svg>
