<svg width="16" height="16" viewBox="0 0 16 16" fill="none" xmlns="http://www.w3.org/2000/svg">
<path d="M4.86065 13.8826L1.33332 14.6666L2.11732 11.1393C1.60101 10.1735 1.33167 9.09502 1.33332 7.99992C1.33332 4.31792 4.31799 1.33325 7.99999 1.33325C11.682 1.33325 14.6667 4.31792 14.6667 7.99992C14.6667 11.6819 11.682 14.6666 7.99999 14.6666C6.90489 14.6682 5.8264 14.3989 4.86065 13.8826ZM5.05399 12.4739L5.48932 12.7073C6.26169 13.12 7.12425 13.3351 7.99999 13.3333C9.05482 13.3333 10.086 13.0205 10.963 12.4344C11.8401 11.8484 12.5237 11.0154 12.9273 10.0409C13.331 9.06636 13.4366 7.994 13.2308 6.95944C13.0251 5.92487 12.5171 4.97456 11.7712 4.22868C11.0253 3.4828 10.075 2.97485 9.04047 2.76906C8.0059 2.56328 6.93355 2.66889 5.95901 3.07256C4.98447 3.47623 4.15152 4.15982 3.56548 5.03688C2.97945 5.91394 2.66665 6.94509 2.66665 7.99992C2.66665 8.88925 2.88332 9.74525 3.29332 10.5106L3.52599 10.9459L3.08932 12.9106L5.05399 12.4739Z" fill="#878787"/>
</svg>
