<svg width="16" height="16" viewBox="0 0 16 16" fill="none" xmlns="http://www.w3.org/2000/svg">
<path d="M2.66669 14.6667C2.66669 13.2523 3.22859 11.8957 4.22878 10.8955C5.22898 9.89532 6.58553 9.33342 8.00002 9.33342C9.41451 9.33342 10.7711 9.89532 11.7713 10.8955C12.7715 11.8957 13.3334 13.2523 13.3334 14.6667H12C12 13.6059 11.5786 12.5885 10.8284 11.8383C10.0783 11.0882 9.06089 10.6667 8.00002 10.6667C6.93915 10.6667 5.92174 11.0882 5.17159 11.8383C4.42145 12.5885 4.00002 13.6059 4.00002 14.6667H2.66669ZM8.00002 8.66675C5.79002 8.66675 4.00002 6.87675 4.00002 4.66675C4.00002 2.45675 5.79002 0.666748 8.00002 0.666748C10.21 0.666748 12 2.45675 12 4.66675C12 6.87675 10.21 8.66675 8.00002 8.66675ZM8.00002 7.33342C9.47335 7.33342 10.6667 6.14008 10.6667 4.66675C10.6667 3.19341 9.47335 2.00008 8.00002 2.00008C6.52669 2.00008 5.33335 3.19341 5.33335 4.66675C5.33335 6.14008 6.52669 7.33342 8.00002 7.33342Z" fill="#878787"/>
</svg>
